<svg id="share" xmlns="http://www.w3.org/2000/svg" width="41.817" height="45.619" viewBox="0 0 41.817 45.619">
  <path id="Path_3404" data-name="Path 3404" d="M316.46,14.256a7.128,7.128,0,1,1,7.128-7.128A7.137,7.137,0,0,1,316.46,14.256Zm0-11.4a4.277,4.277,0,1,0,4.277,4.277A4.282,4.282,0,0,0,316.46,2.851Zm0,0" transform="translate(-281.771)" fill="#9e9e9e"/>
  <path id="Path_3405" data-name="Path 3405" d="M316.46,366.256a7.128,7.128,0,1,1,7.128-7.128A7.137,7.137,0,0,1,316.46,366.256Zm0-11.4a4.277,4.277,0,1,0,4.277,4.277A4.282,4.282,0,0,0,316.46,354.851Zm0,0" transform="translate(-281.771 -320.637)" fill="#9e9e9e"/>
  <path id="Path_3406" data-name="Path 3406" d="M7.128,190.256a7.128,7.128,0,1,1,7.128-7.128A7.137,7.137,0,0,1,7.128,190.256Zm0-11.4a4.277,4.277,0,1,0,4.277,4.277A4.282,4.282,0,0,0,7.128,178.851Zm0,0" transform="translate(0 -160.318)" fill="#9e9e9e"/>
  <path id="Path_3407" data-name="Path 3407" d="M121.116,108.467a1.425,1.425,0,0,1-.707-2.663l17.638-10.055a1.425,1.425,0,0,1,1.41,2.477l-17.638,10.055a1.428,1.428,0,0,1-.7.186Zm0,0" transform="translate(-109.025 -87.045)" fill="#9e9e9e"/>
  <path id="Path_3408" data-name="Path 3408" d="M138.771,284.457a1.414,1.414,0,0,1-.7-.188L120.43,274.214a1.425,1.425,0,0,1,1.411-2.477l17.637,10.055a1.426,1.426,0,0,1-.707,2.665Zm0,0" transform="translate(-109.045 -247.353)" fill="#9e9e9e"/>
</svg>
